<svg width="61" height="60" viewBox="0 0 61 60" fill="none" xmlns="http://www.w3.org/2000/svg">
<rect x="0.5" width="60" height="60" rx="6" fill="#E8F8F8"/>
<path d="M38.4107 27.6667H33.372L37.664 18.0107C37.7769 17.7568 37.8246 17.4788 37.8026 17.2018C37.7807 16.9248 37.6899 16.6578 37.5385 16.4248C37.387 16.1919 37.1798 16.0005 36.9355 15.8681C36.6913 15.7357 36.4178 15.6665 36.14 15.6667H26.98C26.6304 15.6664 26.2896 15.7763 26.006 15.9807C25.7224 16.1851 25.5104 16.4736 25.4 16.8053L20.5107 31.472C20.4269 31.7226 20.404 31.9895 20.4438 32.2507C20.4835 32.5119 20.5848 32.7599 20.7393 32.9743C20.8937 33.1887 21.0969 33.3632 21.3321 33.4836C21.5673 33.604 21.8278 33.6667 22.092 33.6667H27.9187L26.12 41.7667C26.034 42.1316 26.0755 42.515 26.2375 42.8531C26.3996 43.1912 26.6724 43.4637 27.0107 43.6253C27.2428 43.7402 27.4983 43.8005 27.7573 43.8013C28.0007 43.8005 28.2408 43.7458 28.4605 43.6411C28.6802 43.5365 28.874 43.3844 29.028 43.196L39.6907 30.4C39.8933 30.1567 40.0225 29.8606 40.063 29.5465C40.1035 29.2324 40.0537 28.9133 39.9194 28.6265C39.7851 28.3397 39.5718 28.0971 39.3046 27.9271C39.0374 27.7571 38.7273 27.6668 38.4107 27.6667Z" fill="#1CBABC"/>
</svg>
